<?xml version="1.0" standalone="no"?>
<!DOCTYPE svg PUBLIC "-//W3C//DTD SVG 20010904//EN"
 "http://www.w3.org/TR/2001/REC-SVG-20010904/DTD/svg10.dtd">
<svg version="1.0" xmlns="http://www.w3.org/2000/svg"
 width="4096.000000pt" height="4096.000000pt" viewBox="0 0 4096.000000 4096.000000"
 preserveAspectRatio="xMidYMid meet">
<metadata>
Created by potrace 1.16, written by Peter Selinger 2001-2019
</metadata>
<g transform="translate(0.000000,4096.000000) scale(0.100000,-0.100000)"
fill="#000000" stroke="none">
<path d="M19660 40950 c-1507 -67 -2873 -266 -4275 -625 -2605 -666 -5018
-1824 -7195 -3454 -1257 -941 -2454 -2079 -3463 -3293 -1968 -2368 -3378
-5139 -4116 -8093 -349 -1397 -541 -2747 -601 -4215 -13 -316 -13 -1264 0
-1580 135 -3329 1031 -6477 2657 -9335 1135 -1992 2605 -3790 4338 -5305 2016
-1762 4370 -3120 6877 -3969 1091 -369 2120 -625 3286 -819 l112 -19 0 7159 0
7158 -2600 0 -2600 0 0 2960 0 2960 2600 0 2599 0 4 2573 c3 2749 2 2638 52
3132 298 2923 1713 5041 4060 6078 837 369 1743 585 2825 673 265 21 1114 30
1511 15 944 -36 1863 -114 2899 -246 242 -31 794 -111 920 -133 l45 -8 3
-2522 2 -2522 -1307 0 c-1515 0 -1726 -7 -2087 -65 -1380 -222 -2228 -1046
-2461 -2390 -28 -163 -46 -333 -55 -538 -5 -111 -10 -1067 -10 -2124 l0 -1923
2840 0 c1562 0 2840 -3 2840 -7 1 -5 -203 -1337 -452 -2960 l-452 -2953 -2388
0 -2388 0 0 -7159 c0 -6813 1 -7159 18 -7155 9 2 114 20 232 39 1138 189 2341
504 3475 910 3249 1164 6180 3161 8471 5770 1382 1574 2501 3325 3349 5240
951 2148 1526 4471 1689 6830 37 538 41 666 41 1435 0 767 -5 937 -41 1450
-292 4186 -1843 8140 -4479 11411 -913 1133 -1971 2191 -3104 3104 -3152 2539
-6947 4077 -10966 4444 -227 21 -528 43 -860 62 -237 14 -1582 20 -1845 9z"/>
</g>
</svg>
