<?xml version="1.0" standalone="no"?>
<!DOCTYPE svg PUBLIC "-//W3C//DTD SVG 20010904//EN"
 "http://www.w3.org/TR/2001/REC-SVG-20010904/DTD/svg10.dtd">
<svg version="1.0" xmlns="http://www.w3.org/2000/svg"
 width="512.000000pt" height="512.000000pt" viewBox="0 0 512.000000 512.000000"
 preserveAspectRatio="xMidYMid meet">
<metadata>
Created by potrace 1.16, written by Peter Selinger 2001-2019
</metadata>
<g transform="translate(0.000000,512.000000) scale(0.100000,-0.100000)"
fill="#000000" stroke="none">
<path d="M1975 4374 c-545 -11 -1085 -35 -1269 -55 -347 -37 -538 -216 -631
-588 -53 -216 -75 -550 -75 -1166 0 -823 37 -1153 154 -1401 60 -127 144 -213
267 -273 98 -48 162 -65 313 -86 635 -86 3417 -74 3806 17 25 5 87 30 138 55
132 63 222 152 285 283 120 247 157 578 157 1400 0 828 -37 1155 -159 1405
-41 84 -61 112 -119 167 -161 151 -272 184 -707 208 -485 26 -1650 45 -2160
34z m785 -1424 c338 -177 621 -326 628 -330 9 -4 -242 -140 -661 -358 -371
-194 -677 -352 -681 -352 -3 0 -6 320 -6 710 l0 710 53 -29 c28 -16 329 -174
667 -351z"/>
</g>
</svg>
