<svg xmlns="http://www.w3.org/2000/svg" version="1.1" xmlns:xlink="http://www.w3.org/1999/xlink" xmlns:svgjs="http://svgjs.dev/svgjs" width="1000" height="1000" viewBox="0 0 1000 1000"><g transform="matrix(1,0,0,1,-0.14221556886212738,-0.14221556886229791)"><svg viewBox="0 0 334 334" data-background-color="#333366" preserveAspectRatio="xMidYMid meet" height="1000" width="1000" xmlns="http://www.w3.org/2000/svg" xmlns:xlink="http://www.w3.org/1999/xlink"><g id="tight-bounds" transform="matrix(1,0,0,1,0.04749999999998522,0.04750000000001364)"><svg viewBox="0 0 333.90454557049503 333.90454557049503" height="333.90454557049503" width="333.90454557049503"><g><svg></svg></g><g><svg viewBox="0 0 333.90454557049503 333.90454557049503" height="333.90454557049503" width="333.90454557049503"><g><path d="M0 166.952c0-92.205 74.747-166.952 166.952-166.952 92.205 0 166.952 74.747 166.953 166.952 0 92.205-74.747 166.952-166.953 166.953-92.205 0-166.952-74.747-166.952-166.953zM166.952 316.63c82.665 0 149.677-67.013 149.678-149.678 0-82.665-67.013-149.677-149.678-149.677-82.665 0-149.677 67.013-149.677 149.677 0 82.665 67.013 149.677 149.677 149.678z" data-fill-palette-color="tertiary" fill="#ffffff" stroke="transparent"></path><ellipse rx="160.27418187383762" ry="160.27418187383762" cx="166.95227278524752" cy="166.95227278524752" fill="#ffffff" stroke="transparent" stroke-width="0" fill-opacity="1" data-fill-palette-color="tertiary"></ellipse></g><g transform="matrix(1,0,0,1,88.86387502670223,71.17305217166896)"><svg viewBox="0 0 156.17679551709057 191.55844122715712" height="191.55844122715712" width="156.17679551709057"><g><svg viewBox="0 0 156.17679551709057 191.55844122715712" height="191.55844122715712" width="156.17679551709057"><g><svg viewBox="0 0 156.17679551709057 191.55844122715712" height="191.55844122715712" width="156.17679551709057"><g><svg viewBox="0 0 156.17679551709057 191.55844122715712" height="191.55844122715712" width="156.17679551709057"><g id="textblocktransform"><svg viewBox="0 0 156.17679551709057 191.55844122715712" height="191.55844122715712" width="156.17679551709057" id="textblock"><g><svg viewBox="0 0 156.17679551709057 191.55844122715712" height="191.55844122715712" width="156.17679551709057"><g transform="matrix(1,0,0,1,0,0)"><svg width="156.17679551709057" viewBox="0.88 -34.65 28.250000000000004 34.65" height="191.55844122715712" data-palette-color="#333366"><path d="M18.75-34.65L27.18-34.65 29.13 0 21.98 0 21.55-14.83Q21.5-16.9 21.51-18.53 21.53-20.15 21.58-21.59 21.63-23.03 21.74-24.49 21.85-25.95 21.98-27.68L21.98-27.68 18.07-5.9 11.88-5.9 7.68-27.68Q7.83-26.03 7.94-24.56 8.05-23.1 8.1-21.63 8.15-20.15 8.18-18.46 8.2-16.78 8.15-14.7L8.15-14.7 7.9 0 0.88 0 2.83-34.65 11.25-34.65 15.1-12.25 18.75-34.65Z" opacity="1" transform="matrix(1,0,0,1,0,0)" fill="#333366" class="wordmark-text-0" data-fill-palette-color="quaternary" id="text-0"></path></svg></g></svg></g></svg></g></svg></g><g></g></svg></g></svg></g></svg></g></svg></g><defs></defs></svg><rect width="333.90454557049503" height="333.90454557049503" fill="none" stroke="none" visibility="hidden"></rect></g></svg></g></svg>